<svg width="275" height="176" viewBox="0 0 275 176" fill="none" xmlns="http://www.w3.org/2000/svg">
<path d="M125.32 87.2366H115.078C111.5 87.2366 109.525 89.5586 109.525 89.5586H123.284C123.593 89.5586 123.778 89.803 123.778 90.0474C123.778 90.2919 124.025 101.169 123.778 101.658C123.531 102.146 119.027 103.613 111.5 103.613C99.9623 103.613 83.674 97.0746 83.674 82.4703C83.674 67.8659 87.6227 71.1656 88.9183 69.7602H125.752V66.6438H77.751C77.751 66.6438 79.2317 69.6991 83.3655 69.6991H84.9697C83.057 72.3267 80.6508 76.7874 80.6508 82.4092C80.6508 88.0309 83.4272 94.3249 88.2396 98.7245C92.25 102.391 99.5921 106.729 111.562 106.729C123.531 106.729 126.739 105.263 126.739 102.208V88.4587C126.739 87.6032 126.369 87.2977 125.444 87.2977L125.32 87.2366Z" fill="#59342B"/>
<path d="M272.1 69.2103C274.198 68.3548 275 66.6438 275 66.6438H226.999V69.6991H268.954C268.337 76.7263 263.709 84.8534 256.059 91.514C247.236 99.1522 235.575 103.552 227.678 103.552C219.78 103.552 225.642 104.163 225.642 104.835V105.507C225.642 106.302 226.382 106.607 226.999 106.607H269.447V103.552H241.56C259.205 97.8079 271.545 81.9203 272.1 69.1491V69.2103Z" fill="#59342B"/>
<path d="M202.998 106.241L181.651 66.6438C181.651 66.6438 181.219 71.1045 183.07 75.2598L193.867 95.6081H164.498L175.296 75.2598C177.147 71.1656 176.715 66.6438 176.715 66.6438L155.367 106.179H158.822L161.845 100.435C162.648 98.9078 163.635 98.6634 164.622 98.6634H193.558C194.545 98.6634 195.533 98.9078 196.335 100.435L199.358 106.179H202.813L202.998 106.241Z" fill="#59342B"/>
<path d="M132.477 138.627V135.571H84.4761C84.4761 135.571 84.7846 136.244 85.5867 136.977C85.71 144.371 93.1138 156.775 104.59 160.625C101.875 161.175 99.1602 162.153 96.4455 163.925C91.9416 166.797 89.1034 170.096 88.6099 172.907C85.5866 173.518 84.4761 175.84 84.4761 175.84H132.477V172.785H92.1266C91.9416 172.785 91.8798 172.663 91.9415 172.357C93.7308 168.508 102.183 162.397 111.5 161.786C111.993 161.786 112.487 161.786 113.042 161.786C114.708 161.786 116.559 161.908 116.559 161.908C116.559 161.908 114.523 159.769 110.945 159.769C101.381 159.769 90.0906 147.182 88.6716 139.36C88.5482 138.749 88.9183 138.749 89.597 138.749C89.7204 138.749 89.8438 138.749 90.0289 138.749H132.415L132.477 138.627Z" fill="#59342B"/>
<path d="M203.122 175.84H200.901C196.458 175.84 193.065 174.191 189.363 172.48C185.168 170.524 180.849 168.447 174.247 168.447H159.254V165.391H174.247C181.527 165.391 186.402 167.652 190.659 169.73C194.114 171.38 197.137 172.785 200.839 172.785H203.06V175.84H203.122Z" fill="#59342B"/>
<path d="M203.985 135.938C203.985 135.938 191.461 158.303 180.602 158.303H162.216C161.722 158.303 161.414 158.058 161.414 157.631V139.482C161.414 138.993 161.661 138.627 162.093 138.627C166.658 138.627 192.942 138.627 192.818 138.627C192.695 138.627 193.188 138.566 193.065 138.932C192.942 139.299 190.35 143.515 188.746 146.326C188.746 146.326 188.746 146.326 189.425 146.326C190.103 146.326 194.669 142.232 196.335 139.054C196.829 138.077 196.829 137.832 196.829 137.649C196.829 136.488 195.841 135.571 194.607 135.571H158.391V158.731C158.391 160.38 159.378 161.297 160.982 161.297H178.504C194.854 161.297 207.626 135.877 207.626 135.877H204.047L203.985 135.938Z" fill="#59342B"/>
<path d="M273.21 135.51H254.207C250.073 135.51 246.125 138.566 246.125 138.566H273.21V135.51Z" fill="#59342B"/>
<path d="M238.289 143.76C237.302 143.76 236.377 143.76 235.575 143.637H226.443C227.739 145.593 232.058 146.815 238.289 146.815C258.835 146.815 270.311 159.953 271.174 172.846H226.875V175.901H274.321V174.374C274.321 159.525 261.673 143.76 238.289 143.76Z" fill="#59342B"/>
<path d="M122.964 0.48877C120.867 5.25504 113.216 18.3317 92.3003 18.3317H80.516C80.1458 18.3317 80.0224 18.0873 80.0224 17.7818V0.48877H76.9375V18.454C76.9375 19.9205 78.1715 21.1426 79.6522 21.1426H92.3003C116.671 21.1426 124.754 4.46067 126.296 0.48877H122.964Z" fill="#59342B"/>
<path d="M80.0839 27.8035C80.0839 27.4369 80.269 27.3146 80.5775 27.3146H92.3618C112.229 27.3146 120.373 35.9917 123.087 40.0247H126.666C124.815 36.5417 116.609 24.2593 92.3618 24.2593H79.7137C78.233 24.2593 76.999 25.4815 76.999 26.948V40.0247H80.0839V27.8035Z" fill="#59342B"/>
<path d="M206.997 0.427744H204.097C204.097 1.28323 203.665 7.33273 200.21 10.8158C195.521 15.5821 190.585 18.7596 186.945 21.0816C185.896 21.7538 180.097 25.2368 180.097 25.2368V40.0245H182.935V29.7587C182.935 27.4366 183.613 26.5812 184.909 25.6035C187.686 23.587 195.336 19.4928 202.493 12.2212C206.75 7.88269 206.997 1.71097 206.935 0.366638L206.997 0.427744Z" fill="#59342B"/>
<path d="M149.68 0.427744H152.579C152.579 1.28323 153.011 7.33273 156.466 10.8158C161.156 15.5821 166.091 18.7596 169.732 21.0816C170.78 21.7538 176.58 25.2368 176.58 25.2368C176.58 25.4812 176.58 26.8256 176.58 27.8644V29.0254V40.0245H173.742V29.7587C173.742 27.4366 173.063 26.5812 171.768 25.6035C168.991 23.587 161.341 19.4928 154.184 12.2212C149.926 7.88269 149.68 1.71097 149.741 0.366638L149.68 0.427744Z" fill="#59342B"/>
<path d="M46.7671 0H27.7641C23.6303 0 19.6816 3.0553 19.6816 3.0553H46.7671V0Z" fill="#59342B"/>
<path d="M11.846 8.31026C10.8589 8.31026 9.93339 8.31026 9.13131 8.18805H0C1.29566 10.1434 5.61452 11.3656 11.846 11.3656C32.3915 11.3656 43.8673 24.5034 44.7311 37.3968H0.370188V40.4521H47.816V38.9244C47.816 24.0756 35.1679 8.31026 11.7843 8.31026H11.846Z" fill="#59342B"/>
</svg>
